<?xml version="1.0" encoding="UTF-8" standalone="yes"?><svg xmlns="http://www.w3.org/2000/svg" xmlns:xlink="http://www.w3.org/1999/xlink" height="193px" style="width:311px;height:193px;" version="1.1" viewBox="0 0 311 193" width="311px"><defs><filter height="300%" id="f1" width="300%" x="-1" y="-1"><feGaussianBlur result="blurOut" stdDeviation="2.0"/><feColorMatrix in="blurOut" result="blurOut2" type="matrix" values="0 0 0 0 0 0 0 0 0 0 0 0 0 0 0 0 0 0 .4 0"/><feOffset dx="4.0" dy="4.0" in="blurOut2" result="blurOut3"/><feBlend in="SourceGraphic" in2="blurOut3" mode="normal"/></filter></defs><g><polygon fill="#305030" filter="url(#f1)" points="22,31.5,141,31.5,148,55.1094,151,55.1094,151,186,22,186,22,31.5" style="stroke: #000000; stroke-width: 2.0;"/><line style="stroke: #000000; stroke-width: 2.0;" x1="22" x2="148" y1="55.1094" y2="55.1094"/><text fill="#E0E0E0" font-family="sans-serif" font-size="14" font-weight="bold" lengthAdjust="spacingAndGlyphs" textLength="113" x="25" y="49.0332">パーティション1</text><polygon fill="#505070" filter="url(#f1)" points="175,24,294,24,301,47.6094,304,47.6094,304,178.5,175,178.5,175,24" style="stroke: #000000; stroke-width: 2.0;"/><line style="stroke: #000000; stroke-width: 2.0;" x1="175" x2="301" y1="47.6094" y2="47.6094"/><text fill="#E0E0E0" font-family="sans-serif" font-size="14" font-weight="bold" lengthAdjust="spacingAndGlyphs" textLength="113" x="178" y="41.5332">パーティション2</text><ellipse cx="91" cy="77.5" fill="#E0E0E0" filter="url(#f1)" rx="10" ry="10" style="stroke: none; stroke-width: 1.0;"/><rect fill="#508050" filter="url(#f1)" height="35.0938" rx="12.5" ry="12.5" style="stroke: #E0E0E0; stroke-width: 1.5;" width="87" x="47.5" y="135"/><text fill="#FFFFFF" font-family="sans-serif" font-size="12" lengthAdjust="spacingAndGlyphs" textLength="67" x="57.5" y="157.457">アクションA</text><rect fill="#508050" filter="url(#f1)" height="35.0938" rx="12.5" ry="12.5" style="stroke: #E0E0E0; stroke-width: 1.5;" width="88" x="191" y="60"/><text fill="#FFFFFF" font-family="sans-serif" font-size="12" lengthAdjust="spacingAndGlyphs" textLength="68" x="201" y="82.457">アクションB</text><ellipse cx="235" cy="152.5" fill="none" filter="url(#f1)" rx="10" ry="10" style="stroke: #E0E0E0; stroke-width: 1.0;"/><ellipse cx="235.5" cy="153" fill="#E0E0E0" rx="6" ry="6" style="stroke: none; stroke-width: 1.0;"/><path d="M91,87.746 C91,98.177 91,115.51 91,129.4718 " fill="none" style="stroke: #E0E0E0; stroke-width: 1.0;"/><polygon fill="#E0E0E0" points="91,134.8295,95,125.8295,91,129.8295,87,125.8295,91,134.8295" style="stroke: #E0E0E0; stroke-width: 1.0;"/><path d="M197.847,97.335 C175.03,108.9013 146.061,123.587 124.045,134.748 " fill="none" style="stroke: #E0E0E0; stroke-width: 1.0;"/><polygon fill="#E0E0E0" points="202.324,95.065,192.488,95.5675,197.8645,97.3262,196.1058,102.7027,202.324,95.065" style="stroke: #E0E0E0; stroke-width: 1.0;"/><path d="M235,95.065 C235,107.7597 235,125.0957 235,137.1913 " fill="none" style="stroke: #E0E0E0; stroke-width: 1.0;"/><polygon fill="#E0E0E0" points="235,142.3446,239,133.3446,235,137.3446,231,133.3446,235,142.3446" style="stroke: #E0E0E0; stroke-width: 1.0;"/></g></svg>