<?xml version="1.0" encoding="UTF-8" standalone="yes"?><svg xmlns="http://www.w3.org/2000/svg" xmlns:xlink="http://www.w3.org/1999/xlink" height="170px" style="width:95px;height:170px;" version="1.1" viewBox="0 0 95 170" width="95px"><defs><filter height="300%" id="f1" width="300%" x="-1" y="-1"><feGaussianBlur result="blurOut" stdDeviation="2.0"/><feColorMatrix in="blurOut" result="blurOut2" type="matrix" values="0 0 0 0 0 0 0 0 0 0 0 0 0 0 0 0 0 0 .4 0"/><feOffset dx="4.0" dy="4.0" in="blurOut2" result="blurOut3"/><feBlend in="SourceGraphic" in2="blurOut3" mode="normal"/></filter></defs><g><ellipse cx="46" cy="18" fill="#E0E0E0" filter="url(#f1)" rx="10" ry="10" style="stroke: none; stroke-width: 1.0;"/><rect fill="#508050" filter="url(#f1)" height="35.0938" rx="12.5" ry="12.5" style="stroke: #E0E0E0; stroke-width: 1.5;" width="80" x="6" y="68"/><text fill="#FFFFFF" font-family="sans-serif" font-size="12" lengthAdjust="spacingAndGlyphs" textLength="60" x="16" y="90.457">アクション</text><ellipse cx="46" cy="153" fill="none" filter="url(#f1)" rx="10" ry="10" style="stroke: #E0E0E0; stroke-width: 1.0;"/><ellipse cx="46.5" cy="153.5" fill="#E0E0E0" rx="6" ry="6" style="stroke: none; stroke-width: 1.0;"/><path d="M46,28.107 C46,37.009 46,50.899 46,62.666 " fill="none" style="stroke: #E0E0E0; stroke-width: 1.0;"/><polygon fill="#E0E0E0" points="46,67.8975,50,58.8975,46,62.8975,42,58.8975,46,67.8975" style="stroke: #E0E0E0; stroke-width: 1.0;"/><path d="M46,103.0284 C46,113.6446 46,127.3033 46,137.4974 " fill="none" style="stroke: #E0E0E0; stroke-width: 1.0;"/><polygon fill="#E0E0E0" points="46,142.763,50,133.763,46,137.763,42,133.763,46,142.763" style="stroke: #E0E0E0; stroke-width: 1.0;"/></g></svg>