<?xml version="1.0" encoding="UTF-8" standalone="yes"?><svg xmlns="http://www.w3.org/2000/svg" xmlns:xlink="http://www.w3.org/1999/xlink" height="281px" style="width:212px;height:281px;" version="1.1" viewBox="0 0 212 281" width="212px"><defs><filter height="300%" id="f1" width="300%" x="-1" y="-1"><feGaussianBlur result="blurOut" stdDeviation="2.0"/><feColorMatrix in="blurOut" result="blurOut2" type="matrix" values="0 0 0 0 0 0 0 0 0 0 0 0 0 0 0 0 0 0 .4 0"/><feOffset dx="4.0" dy="4.0" in="blurOut2" result="blurOut3"/><feBlend in="SourceGraphic" in2="blurOut3" mode="normal"/></filter></defs><g><ellipse cx="30" cy="25.5" fill="#E0E0E0" filter="url(#f1)" rx="10" ry="10" style="stroke: none; stroke-width: 1.0;"/><rect fill="#508050" filter="url(#f1)" height="35.0938" rx="12.5" ry="12.5" style="stroke: #E0E0E0; stroke-width: 1.5;" width="87" x="60.5" y="8"/><text fill="#FFFFFF" font-family="sans-serif" font-size="12" lengthAdjust="spacingAndGlyphs" textLength="67" x="70.5" y="30.457">アクションA</text><rect fill="#E0E0E0" filter="url(#f1)" height="8" style="stroke: none; stroke-width: 1.0;" width="80" x="64" y="83"/><rect fill="#508050" filter="url(#f1)" height="35.0938" rx="12.5" ry="12.5" style="stroke: #E0E0E0; stroke-width: 1.5;" width="88" x="6" y="131"/><text fill="#FFFFFF" font-family="sans-serif" font-size="12" lengthAdjust="spacingAndGlyphs" textLength="68" x="16" y="153.457">アクションB</text><rect fill="#E0E0E0" filter="url(#f1)" height="8" style="stroke: none; stroke-width: 1.0;" width="80" x="64" y="206"/><rect fill="#508050" filter="url(#f1)" height="35.0938" rx="12.5" ry="12.5" style="stroke: #E0E0E0; stroke-width: 1.5;" width="89" x="114.5" y="131"/><text fill="#FFFFFF" font-family="sans-serif" font-size="12" lengthAdjust="spacingAndGlyphs" textLength="69" x="124.5" y="153.457">アクションC</text><ellipse cx="104" cy="264" fill="none" filter="url(#f1)" rx="10" ry="10" style="stroke: #E0E0E0; stroke-width: 1.0;"/><ellipse cx="104.5" cy="264.5" fill="#E0E0E0" rx="6" ry="6" style="stroke: none; stroke-width: 1.0;"/><path d="M40.1172,25.5 C45.0041,25.5 49.8909,25.5 54.7778,25.5 " fill="none" style="stroke: #E0E0E0; stroke-width: 1.0;"/><polygon fill="#E0E0E0" points="60.0806,25.5,51.0806,21.5,55.0806,25.5,51.0806,29.5,60.0806,25.5" style="stroke: #E0E0E0; stroke-width: 1.0;"/><path d="M104,43.074 C104,54.249 104,68.533 104,77.477 " fill="none" style="stroke: #E0E0E0; stroke-width: 1.0;"/><polygon fill="#E0E0E0" points="104,82.711,108,73.711,104,77.711,100,73.711,104,82.711" style="stroke: #E0E0E0; stroke-width: 1.0;"/><path d="M101.0967,91.199 C95.0614,97.849 80.7267,113.644 68.7717,126.816 " fill="none" style="stroke: #E0E0E0; stroke-width: 1.0;"/><polygon fill="#E0E0E0" points="65.1498,130.807,74.1602,126.8304,68.51,127.1044,68.236,121.4542,65.1498,130.807" style="stroke: #E0E0E0; stroke-width: 1.0;"/><path d="M65.042,166.074 C75.7695,177.8942 89.6531,193.1919 97.6194,201.9695 " fill="none" style="stroke: #E0E0E0; stroke-width: 1.0;"/><polygon fill="#E0E0E0" points="101.015,205.7109,97.9286,196.3581,97.6548,202.0084,92.0045,201.7345,101.015,205.7109" style="stroke: #E0E0E0; stroke-width: 1.0;"/><path d="M106.957,91.199 C113.104,97.849 127.704,113.644 139.881,126.816 " fill="none" style="stroke: #E0E0E0; stroke-width: 1.0;"/><polygon fill="#E0E0E0" points="143.57,130.807,140.3994,121.4824,140.1765,127.1349,134.5241,126.912,143.57,130.807" style="stroke: #E0E0E0; stroke-width: 1.0;"/><path d="M143.679,166.074 C132.753,177.8942 118.613,193.1919 110.499,201.9695 " fill="none" style="stroke: #E0E0E0; stroke-width: 1.0;"/><polygon fill="#E0E0E0" points="107.04,205.7109,116.0866,201.8174,110.4341,202.0394,110.2121,196.3869,107.04,205.7109" style="stroke: #E0E0E0; stroke-width: 1.0;"/><path d="M104,214.0971 C104,220.7713 104,236.8695 104,248.7824 " fill="none" style="stroke: #E0E0E0; stroke-width: 1.0;"/><polygon fill="#E0E0E0" points="104,253.9126,108,244.9126,104,248.9126,100,244.9126,104,253.9126" style="stroke: #E0E0E0; stroke-width: 1.0;"/></g></svg>