<?xml version="1.0" encoding="UTF-8" standalone="yes"?><svg xmlns="http://www.w3.org/2000/svg" xmlns:xlink="http://www.w3.org/1999/xlink" height="265px" style="width:203px;height:265px;" version="1.1" viewBox="0 0 203 265" width="203px"><defs><filter height="300%" id="f1" width="300%" x="-1" y="-1"><feGaussianBlur result="blurOut" stdDeviation="2.0"/><feColorMatrix in="blurOut" result="blurOut2" type="matrix" values="0 0 0 0 0 0 0 0 0 0 0 0 0 0 0 0 0 0 .4 0"/><feOffset dx="4.0" dy="4.0" in="blurOut2" result="blurOut3"/><feBlend in="SourceGraphic" in2="blurOut3" mode="normal"/></filter></defs><g><ellipse cx="49.5" cy="18" fill="#E0E0E0" filter="url(#f1)" rx="10" ry="10" style="stroke: none; stroke-width: 1.0;"/><rect fill="#508050" filter="url(#f1)" height="35.0938" rx="12.5" ry="12.5" style="stroke: #E0E0E0; stroke-width: 1.5;" width="87" x="6" y="69"/><text fill="#FFFFFF" font-family="sans-serif" font-size="12" lengthAdjust="spacingAndGlyphs" textLength="67" x="16" y="91.457">アクションA</text><polygon fill="#508050" filter="url(#f1)" points="49.5,150.5,61.5,162.5,49.5,174.5,37.5,162.5,49.5,150.5" style="stroke: #E0E0E0; stroke-width: 1.5;"/><rect fill="#508050" filter="url(#f1)" height="35.0938" rx="12.5" ry="12.5" style="stroke: #E0E0E0; stroke-width: 1.5;" width="88" x="106.5" y="145"/><text fill="#FFFFFF" font-family="sans-serif" font-size="12" lengthAdjust="spacingAndGlyphs" textLength="68" x="116.5" y="167.457">アクションB</text><ellipse cx="107.5" cy="248" fill="none" filter="url(#f1)" rx="10" ry="10" style="stroke: #E0E0E0; stroke-width: 1.0;"/><ellipse cx="108" cy="248.5" fill="#E0E0E0" rx="6" ry="6" style="stroke: none; stroke-width: 1.0;"/><path d="M49.5,28.247 C49.5,37.427 49.5,51.836 49.5,63.901 " fill="none" style="stroke: #E0E0E0; stroke-width: 1.0;"/><polygon fill="#E0E0E0" points="49.5,68.907,53.5,59.907,49.5,63.907,45.5,59.907,49.5,68.907" style="stroke: #E0E0E0; stroke-width: 1.0;"/><path d="M49.5,104.292 C49.5,116.421 49.5,132.73 49.5,144.831 " fill="none" style="stroke: #E0E0E0; stroke-width: 1.0;"/><polygon fill="#E0E0E0" points="49.5,150.064,53.5,141.064,49.5,145.064,45.5,141.064,49.5,150.064" style="stroke: #E0E0E0; stroke-width: 1.0;"/><text fill="#FFFFFF" font-family="sans-serif" font-size="13" lengthAdjust="spacingAndGlyphs" textLength="26" x="18.3813" y="139.5817">条件</text><path d="M61.8846,162.5 C71.8304,162.5 86.4919,162.5 101.0385,162.5 " fill="none" style="stroke: #E0E0E0; stroke-width: 1.0;"/><polygon fill="#E0E0E0" points="106.384,162.5,97.384,158.5,101.384,162.5,97.384,166.5,106.384,162.5" style="stroke: #E0E0E0; stroke-width: 1.0;"/><text fill="#FFFFFF" font-family="sans-serif" font-size="13" lengthAdjust="spacingAndGlyphs" textLength="23" x="72.5" y="155.9951">Yes</text><path d="M141.798,180.3975 C133.596,196.3244 121.488,219.8381 114.067,234.247 " fill="none" style="stroke: #E0E0E0; stroke-width: 1.0;"/><polygon fill="#E0E0E0" points="111.743,238.7604,119.4201,232.591,114.0325,234.3154,112.3081,228.9278,111.743,238.7604" style="stroke: #E0E0E0; stroke-width: 1.0;"/><path d="M54.0512,170.0521 C63.8002,184.0873 86.8195,217.2273 99.2291,235.0928 " fill="none" style="stroke: #E0E0E0; stroke-width: 1.0;"/><polygon fill="#E0E0E0" points="102.141,239.2849,100.2919,229.6112,99.2886,235.1784,93.7214,234.175,102.141,239.2849" style="stroke: #E0E0E0; stroke-width: 1.0;"/><text fill="#FFFFFF" font-family="sans-serif" font-size="13" lengthAdjust="spacingAndGlyphs" textLength="16" x="87.5" y="214.4951">No</text></g></svg>