<?xml version="1.0" encoding="UTF-8" standalone="yes"?><svg xmlns="http://www.w3.org/2000/svg" xmlns:xlink="http://www.w3.org/1999/xlink" height="181px" style="width:378px;height:181px;" version="1.1" viewBox="0 0 378 181" width="378px"><defs><filter height="300%" id="f1" width="300%" x="-1" y="-1"><feGaussianBlur result="blurOut" stdDeviation="2.0"/><feColorMatrix in="blurOut" result="blurOut2" type="matrix" values="0 0 0 0 0 0 0 0 0 0 0 0 0 0 0 0 0 0 .4 0"/><feOffset dx="4.0" dy="4.0" in="blurOut2" result="blurOut3"/><feBlend in="SourceGraphic" in2="blurOut3" mode="normal"/></filter></defs><g><rect fill="#508050" filter="url(#f1)" height="48" style="stroke: #E0E0E0; stroke-width: 1.5;" width="92" x="23" y="8"/><ellipse cx="38" cy="24" fill="#A9DCDF" rx="11" ry="11" style="stroke: #E0E0E0; stroke-width: 1.0;"/><path d="M35.8594,29.8594 L33.2656,29.8594 L36.5938,16.9219 L38.9219,16.9219 L42.2344,29.8594 L39.6406,29.8594 L38.7188,26.0781 L36.7969,26.0781 L35.8594,29.8594 Z M37.3125,20.4375 L37.3125,20.4375 L37.125,24.8125 L38.375,24.8125 L37.3125,20.4375 Z "/><text fill="#FFFFFF" font-family="sans-serif" font-size="12" font-style="italic" lengthAdjust="spacingAndGlyphs" textLength="60" x="52" y="28.9102">抽象クラス</text><line style="stroke: #E0E0E0; stroke-width: 1.5;" x1="24" x2="114" y1="40" y2="40"/><line style="stroke: #E0E0E0; stroke-width: 1.5;" x1="24" x2="114" y1="48" y2="48"/><rect fill="#508050" filter="url(#f1)" height="48" style="stroke: #E0E0E0; stroke-width: 1.5;" width="116" x="150" y="8"/><ellipse cx="165" cy="24" fill="#B4A7E5" rx="11" ry="11" style="stroke: #E0E0E0; stroke-width: 1.0;"/><path d="M165.9844,28.9063 L166.7188,28.9063 L166.7188,30.3594 L162.7188,30.3594 L162.7188,28.9063 L163.4531,28.9063 L163.4531,18.875 L162.7188,18.875 L162.7188,17.4219 L166.7188,17.4219 L166.7188,18.875 L165.9844,18.875 L165.9844,28.9063 Z "/><text fill="#FFFFFF" font-family="sans-serif" font-size="12" font-style="italic" lengthAdjust="spacingAndGlyphs" textLength="84" x="179" y="28.9102">インタフェース</text><line style="stroke: #E0E0E0; stroke-width: 1.5;" x1="151" x2="265" y1="40" y2="40"/><line style="stroke: #E0E0E0; stroke-width: 1.5;" x1="151" x2="265" y1="48" y2="48"/><rect fill="#508050" filter="url(#f1)" height="48" style="stroke: #E0E0E0; stroke-width: 1.5;" width="68" x="301" y="8"/><ellipse cx="316" cy="24" fill="#EB937F" rx="11" ry="11" style="stroke: #E0E0E0; stroke-width: 1.0;"/><path d="M314.5313,22.8594 L319.0469,22.8594 L319.0469,24.125 L314.5313,24.125 L314.5313,29.1094 L319.7656,29.1094 L319.7656,30.3594 L312,30.3594 L312,17.4219 L319.4375,17.4219 L319.4375,18.6719 L314.5313,18.6719 L314.5313,22.8594 Z "/><text fill="#FFFFFF" font-family="sans-serif" font-size="12" lengthAdjust="spacingAndGlyphs" textLength="36" x="330" y="28.9102">列挙型</text><line style="stroke: #E0E0E0; stroke-width: 1.5;" x1="302" x2="368" y1="40" y2="40"/><line style="stroke: #E0E0E0; stroke-width: 1.5;" x1="302" x2="368" y1="48" y2="48"/><rect fill="#508050" filter="url(#f1)" height="56.1875" style="stroke: #E0E0E0; stroke-width: 1.5;" width="126" x="6" y="116"/><ellipse cx="21" cy="136.0938" fill="#ADD1B2" rx="11" ry="11" style="stroke: #E0E0E0; stroke-width: 1.0;"/><path d="M23.7031,141.5313 Q22.7813,142.4531 20.5156,142.4531 Q19.25,142.4531 18.3281,141.5313 Q16.6719,139.875 16.6719,136.3438 Q16.6719,132.2344 18.4531,130.4375 Q19.3906,129.5156 20.5781,129.5156 Q22.8438,129.5156 23.5781,130.2344 Q24.9688,131.6406 24.9063,134.0313 L22.4375,134.0313 Q22.375,131.9063 21.6406,131.1719 Q21.25,130.7656 20.5781,130.7656 Q20.5781,130.7656 20.5156,131.2344 Q19.1875,132.5625 19.1875,136.2188 Q19.1875,139.4063 20.3281,140.5313 Q20.8594,141.0625 20.8594,141.0625 Q21.1094,141.0625 21.6406,140.5313 Q22.3125,139.875 22.375,137.4844 L24.9688,137.4844 Q24.7656,140.4688 23.7031,141.5313 Z "/><text fill="#E0E0E0" font-family="sans-serif" font-size="12" font-style="italic" lengthAdjust="spacingAndGlyphs" textLength="98" x="33" y="133.457">«ステレオタイプ»</text><text fill="#FFFFFF" font-family="sans-serif" font-size="12" lengthAdjust="spacingAndGlyphs" textLength="36" x="64" y="148.5508">クラス</text><line style="stroke: #E0E0E0; stroke-width: 1.5;" x1="7" x2="131" y1="156.1875" y2="156.1875"/><line style="stroke: #E0E0E0; stroke-width: 1.5;" x1="7" x2="131" y1="164.1875" y2="164.1875"/><rect fill="#508050" filter="url(#f1)" height="48" style="stroke: #E0E0E0; stroke-width: 1.5;" width="97" x="167.5" y="120"/><ellipse cx="182.5" cy="136" fill="#FFFF00" rx="11" ry="11" style="stroke: #E0E0E0; stroke-width: 1.0;"/><path d="M183.2188,127.3438 Q186.6719,127.4844 186.6719,130.6094 Q186.6719,132.2656 185.6719,133.4531 Q185.2813,134.0625 185.1406,134.3281 Q185.0156,134.7188 185.0156,135.1875 Q185.0156,136.1875 184.2813,136.4531 Q183.8125,136.7188 182.75,136.7188 Q180.4531,136.8281 179.9531,136.25 Q179.5625,135.9219 179.5625,135.1875 Q179.5625,134.7188 179.4219,134.3906 Q179.2969,134.0625 178.8281,133.4531 Q177.9688,132.3281 177.9063,130.875 Q177.8281,129.0781 178.8906,128.2188 Q180.125,127.2656 183.2188,127.3438 Z M189.1875,138.8438 Q189.7969,138.9063 189.7969,139.6406 Q189.7969,139.9063 189.6563,140.0313 Q189.5313,140.2344 189.3906,140.8281 Q189.3281,141.0938 189.1875,141.2969 Q189,141.5625 187.6563,141.5625 Q187.2031,141.5625 186.9375,141.2969 Q186.5313,140.9063 186.0625,140.7031 Q184.0781,139.9063 182.3125,139.2344 L178.7656,140.6406 Q177.9688,140.9688 177.7656,141.2344 Q177.4375,141.5625 176.9063,141.5625 Q175.7813,141.8125 175.4375,141.3594 Q175.25,141.1719 175.1719,140.7656 Q175.1719,140.3594 174.9844,140.0313 Q174.8438,139.8281 174.8438,139.5 Q174.9063,138.8438 175.5156,138.8438 Q177.0469,138.8438 177.3125,139.0313 Q177.5,139.1719 177.5,139.1719 Q177.5,139.1719 177.5,139.0313 L179.5625,138.1719 L177.2969,137.25 Q176.9688,137.1094 176.7656,137.1094 Q176.7656,137.1094 176.7656,137.25 Q176.7656,137.6406 175.5156,137.4375 Q175.0469,137.375 174.9844,136.8438 Q174.9844,136.4531 175.1094,136.3125 Q175.375,136.0469 175.3125,135.5781 Q175.3125,135.25 175.5781,134.9844 Q175.8438,134.7188 176.0469,134.7188 Q177.5,134.7188 177.8438,135.0469 Q178.1719,135.4531 178.7656,135.6563 L182.3125,137.0625 L185.875,135.6563 Q186.5313,135.3906 186.7344,135.125 Q187.2188,134.625 188.6563,134.7813 Q188.9219,134.8594 189.125,135.0469 Q189.3906,135.3125 189.3281,135.5781 Q189.3281,136.0469 189.5313,136.3125 Q189.6563,136.4531 189.6563,136.7188 Q189.7188,137.5156 188,137.5156 Q187.6563,137.5156 187.2656,137.3125 Q187.0625,137.1719 187.0625,137.1719 Q187.0625,137.25 187.0625,137.3125 L185.0781,138.1719 L187.3281,139.0313 Q187.6719,139.1719 187.6719,139.1719 Q187.6719,139.1719 187.6719,139.0313 Q187.9375,138.6406 189.1875,138.8438 Z M184.2031,133.0625 Q185,132 185,130.7969 Q185.1406,127.9531 181.75,127.9531 Q181.3594,127.9531 180.5,128.5469 Q179.5,129.2031 179.5,130.6094 Q179.5,131.9375 180.3594,133.0625 Q180.8906,133.7188 181.0313,134.1875 Q181.0938,134.3906 181.2188,135.25 Q181.2969,135.6563 181.4219,135.7813 Q181.75,136.0469 181.75,136.0469 Q182.75,136.0469 183.0781,135.8438 Q183.3438,135.7813 183.3438,135.1875 Q183.3438,134.7188 183.4844,134.25 Q183.75,133.7188 184.2031,133.0625 Z M188.125,136.9063 Q188.1875,136.8438 188.1875,136.7188 Q188.1875,136.6406 188.1875,136.5781 Q187.9219,136.1875 187.8594,135.5781 Q187.8594,135.4531 187.7344,135.3125 Q187.6563,135.25 187.6563,135.25 Q187.6563,135.3125 187.6563,135.4531 Q187.6563,135.8438 187.0625,136.1094 L183.4844,137.5156 L183.9688,137.7188 L186.1406,136.8438 Q186.8438,136.4844 187.8594,136.7188 Q188.2031,136.7813 188.3906,136.8438 Q188.7344,137.0469 188.7344,137.0469 Q188.125,137.0469 188.125,136.9063 Z M188.2656,139.7656 Q188.3281,139.7656 188.3281,139.6406 Q188.3281,139.5625 188.2656,139.4375 Q188.1875,139.375 188.0625,139.2969 Q188.0625,139.2969 188.0625,139.4375 Q188.0625,139.6406 186.9375,139.6406 Q186.5938,139.6406 186.2656,139.5 L177.7031,136.1094 Q176.8438,135.7813 176.5781,135.5156 Q176.2344,135.1875 176.6406,135.1875 Q176.6406,135.25 176.9063,135.3125 Q176.8438,135.4531 176.7813,135.5781 Q176.7813,136.1875 176.4375,136.5781 Q176.4375,136.6406 176.4375,136.7188 Q176.4375,136.8438 176.5156,136.9063 Q176.5781,137.0469 176.6406,137.0469 Q176.6406,137.0469 176.6406,136.9063 Q176.6406,136.7188 176.7656,136.6406 Q178.1094,136.6406 178.5625,136.8438 L187.1406,140.2344 Q188,140.5625 188.2656,140.9063 Q188.4688,141.0938 188.4688,141.0938 Q188.4688,141.0938 187.9219,140.8281 Q188,140.0938 188.2656,139.7656 Z M177.5,140.2344 Q179.2344,139.5625 181.2188,138.7656 L180.7188,138.5781 L178.375,139.5 Q178.0313,139.6406 176.7656,139.6406 Q176.375,139.6406 176.0469,139.4375 Q175.8438,139.2969 175.8438,139.2969 Q175.8438,139.375 175.8438,139.4375 Q176.0781,139.5625 176.0781,139.6406 Q176.375,139.7031 176.375,139.7656 Q176.7031,140.1719 176.6406,140.7656 Q176.7031,140.9688 176.7813,141.0313 Q176.8438,141.0938 176.8438,141.0938 Q176.8438,141.0938 176.8438,140.9063 Q176.7031,140.5625 177.5,140.2344 Z M184.9375,130.5313 L184.9375,131.0625 Q185.1406,131.4688 184.875,131.6719 Q184.4063,132.1406 183.7813,131.9844 Q183.1406,132.1406 182.6875,131.6719 Q182.4219,131.4688 182.4219,131.0625 L182.4219,130.5313 Q182.4219,130.2656 182.6875,130 Q182.9531,129.7344 183.3438,129.7344 Q184.6094,129.7344 184.875,130 Q185.1406,130.2656 184.9375,130.5313 Z M181.9531,130.5313 L181.9531,131.0625 Q181.8906,131.5313 181.5625,131.6719 Q181.5625,132.1563 180.7813,131.9844 Q180.125,132.125 179.6875,131.6719 Q179.4219,131.4688 179.4219,131.0625 L179.4219,130.5313 Q179.4219,130.2656 179.6875,130 Q179.9531,129.7344 180.3594,129.7344 Q181.625,129.7344 181.8906,130 Q182.1563,130.2656 181.9531,130.5313 Z M183.2188,132.7344 Q183.4219,132.9219 183.4219,133.125 Q183.4219,133.3906 182.9531,133.3906 Q181.375,133.5625 181.2813,133.125 Q181.2813,133 181.4219,132.7344 Q181.625,132.5313 181.625,132.2656 Q181.625,132.125 181.75,132.125 Q182.9531,132.125 182.9531,132.2656 Q183.0156,132.5938 183.2188,132.7344 Z M183.875,134.3906 L183.875,135.1875 Q183.875,135.3906 182.6875,135.3906 Q182.4844,135.3906 182.4219,135.1875 L182.4219,135.0469 L182.7188,135.0469 L182.7188,135.1875 Q183.0781,135.3906 181.8125,135.3906 Q181.625,135.3906 181.5469,135.1875 L181.5469,135.0469 L181.9531,135.0469 L181.9531,135.1875 Q181.9531,135.3906 180.9531,135.3906 Q180.6875,135.3906 180.6875,135.1875 L180.6875,134.3906 Q180.75,134.125 181.9531,134.125 Q182.1563,134.1875 182.1563,134.3906 L182.1563,134.5938 L181.8438,134.5938 L181.8438,134.3906 Q181.625,134.125 182.8125,134.125 Q183.0781,134.1875 183.0156,134.3906 L183.0156,134.5938 L182.7188,134.5938 L182.7188,134.3906 Q182.4844,134.125 182.6875,134.125 Q183.875,134.125 183.875,134.3906 Z "/><text fill="#FFFFFF" font-family="sans-serif" font-size="12" lengthAdjust="spacingAndGlyphs" textLength="65" x="196.5" y="140.9102">なんでもOK</text><line style="stroke: #E0E0E0; stroke-width: 1.5;" x1="168.5" x2="263.5" y1="152" y2="152"/><line style="stroke: #E0E0E0; stroke-width: 1.5;" x1="168.5" x2="263.5" y1="160" y2="160"/></g></svg>