<?xml version="1.0" encoding="UTF-8" standalone="yes"?><svg xmlns="http://www.w3.org/2000/svg" xmlns:xlink="http://www.w3.org/1999/xlink" height="311px" style="width:250px;height:311px;" version="1.1" viewBox="0 0 250 311" width="250px"><defs><filter height="300%" id="f1" width="300%" x="-1" y="-1"><feGaussianBlur result="blurOut" stdDeviation="2.0"/><feColorMatrix in="blurOut" result="blurOut2" type="matrix" values="0 0 0 0 0 0 0 0 0 0 0 0 0 0 0 0 0 0 .4 0"/><feOffset dx="4.0" dy="4.0" in="blurOut2" result="blurOut3"/><feBlend in="SourceGraphic" in2="blurOut3" mode="normal"/></filter></defs><g><polygon fill="#C0C0A0" filter="url(#f1)" points="22,80,112,80,119,103.6094,243,103.6094,243,180,22,180,22,80" style="stroke: #000000; stroke-width: 2.0;"/><line style="stroke: #000000; stroke-width: 2.0;" x1="22" x2="119" y1="103.6094" y2="103.6094"/><text fill="#000000" font-family="sans-serif" font-size="14" font-weight="bold" lengthAdjust="spacingAndGlyphs" textLength="84" x="25" y="97.5332">モジュールX</text><polygon fill="#C0C0A0" filter="url(#f1)" points="133,204,224,204,231,227.6094,243,227.6094,243,304,133,304,133,204" style="stroke: #000000; stroke-width: 2.0;"/><line style="stroke: #000000; stroke-width: 2.0;" x1="133" x2="231" y1="227.6094" y2="227.6094"/><text fill="#000000" font-family="sans-serif" font-size="14" font-weight="bold" lengthAdjust="spacingAndGlyphs" textLength="85" x="136" y="221.5332">モジュールY</text><rect fill="#508050" filter="url(#f1)" height="48" style="stroke: #E0E0E0; stroke-width: 1.5;" width="76" x="38" y="116"/><ellipse cx="53" cy="132" fill="#ADD1B2" rx="11" ry="11" style="stroke: #E0E0E0; stroke-width: 1.0;"/><path d="M55.7031,137.4375 Q54.7813,138.3594 52.5156,138.3594 Q51.25,138.3594 50.3281,137.4375 Q48.6719,135.7813 48.6719,132.25 Q48.6719,128.1406 50.4531,126.3438 Q51.3906,125.4219 52.5781,125.4219 Q54.8438,125.4219 55.5781,126.1406 Q56.9688,127.5469 56.9063,129.9375 L54.4375,129.9375 Q54.375,127.8125 53.6406,127.0781 Q53.25,126.6719 52.5781,126.6719 Q52.5781,126.6719 52.5156,127.1406 Q51.1875,128.4688 51.1875,132.125 Q51.1875,135.3125 52.3281,136.4375 Q52.8594,136.9688 52.8594,136.9688 Q53.1094,136.9688 53.6406,136.4375 Q54.3125,135.7813 54.375,133.3906 L56.9688,133.3906 Q56.7656,136.375 55.7031,137.4375 Z "/><text fill="#FFFFFF" font-family="sans-serif" font-size="12" lengthAdjust="spacingAndGlyphs" textLength="44" x="67" y="136.9102">クラスB</text><line style="stroke: #E0E0E0; stroke-width: 1.5;" x1="39" x2="113" y1="148" y2="148"/><line style="stroke: #E0E0E0; stroke-width: 1.5;" x1="39" x2="113" y1="156" y2="156"/><rect fill="#508050" filter="url(#f1)" height="48" style="stroke: #E0E0E0; stroke-width: 1.5;" width="77" x="149.5" y="116"/><ellipse cx="164.5" cy="132" fill="#ADD1B2" rx="11" ry="11" style="stroke: #E0E0E0; stroke-width: 1.0;"/><path d="M167.2031,137.4375 Q166.2813,138.3594 164.0156,138.3594 Q162.75,138.3594 161.8281,137.4375 Q160.1719,135.7813 160.1719,132.25 Q160.1719,128.1406 161.9531,126.3438 Q162.8906,125.4219 164.0781,125.4219 Q166.3438,125.4219 167.0781,126.1406 Q168.4688,127.5469 168.4063,129.9375 L165.9375,129.9375 Q165.875,127.8125 165.1406,127.0781 Q164.75,126.6719 164.0781,126.6719 Q164.0781,126.6719 164.0156,127.1406 Q162.6875,128.4688 162.6875,132.125 Q162.6875,135.3125 163.8281,136.4375 Q164.3594,136.9688 164.3594,136.9688 Q164.6094,136.9688 165.1406,136.4375 Q165.8125,135.7813 165.875,133.3906 L168.4688,133.3906 Q168.2656,136.375 167.2031,137.4375 Z "/><text fill="#FFFFFF" font-family="sans-serif" font-size="12" lengthAdjust="spacingAndGlyphs" textLength="45" x="178.5" y="136.9102">クラスC</text><line style="stroke: #E0E0E0; stroke-width: 1.5;" x1="150.5" x2="225.5" y1="148" y2="148"/><line style="stroke: #E0E0E0; stroke-width: 1.5;" x1="150.5" x2="225.5" y1="156" y2="156"/><rect fill="#508050" filter="url(#f1)" height="48" style="stroke: #E0E0E0; stroke-width: 1.5;" width="77" x="149.5" y="240"/><ellipse cx="164.5" cy="256" fill="#ADD1B2" rx="11" ry="11" style="stroke: #E0E0E0; stroke-width: 1.0;"/><path d="M167.2031,261.4375 Q166.2813,262.3594 164.0156,262.3594 Q162.75,262.3594 161.8281,261.4375 Q160.1719,259.7813 160.1719,256.25 Q160.1719,252.1406 161.9531,250.3438 Q162.8906,249.4219 164.0781,249.4219 Q166.3438,249.4219 167.0781,250.1406 Q168.4688,251.5469 168.4063,253.9375 L165.9375,253.9375 Q165.875,251.8125 165.1406,251.0781 Q164.75,250.6719 164.0781,250.6719 Q164.0781,250.6719 164.0156,251.1406 Q162.6875,252.4688 162.6875,256.125 Q162.6875,259.3125 163.8281,260.4375 Q164.3594,260.9688 164.3594,260.9688 Q164.6094,260.9688 165.1406,260.4375 Q165.8125,259.7813 165.875,257.3906 L168.4688,257.3906 Q168.2656,260.375 167.2031,261.4375 Z "/><text fill="#FFFFFF" font-family="sans-serif" font-size="12" lengthAdjust="spacingAndGlyphs" textLength="45" x="178.5" y="260.9102">クラスC</text><line style="stroke: #E0E0E0; stroke-width: 1.5;" x1="150.5" x2="225.5" y1="272" y2="272"/><line style="stroke: #E0E0E0; stroke-width: 1.5;" x1="150.5" x2="225.5" y1="280" y2="280"/><rect fill="#508050" filter="url(#f1)" height="48" style="stroke: #E0E0E0; stroke-width: 1.5;" width="75" x="38.5" y="8"/><ellipse cx="53.5" cy="24" fill="#ADD1B2" rx="11" ry="11" style="stroke: #E0E0E0; stroke-width: 1.0;"/><path d="M56.2031,29.4375 Q55.2813,30.3594 53.0156,30.3594 Q51.75,30.3594 50.8281,29.4375 Q49.1719,27.7813 49.1719,24.25 Q49.1719,20.1406 50.9531,18.3438 Q51.8906,17.4219 53.0781,17.4219 Q55.3438,17.4219 56.0781,18.1406 Q57.4688,19.5469 57.4063,21.9375 L54.9375,21.9375 Q54.875,19.8125 54.1406,19.0781 Q53.75,18.6719 53.0781,18.6719 Q53.0781,18.6719 53.0156,19.1406 Q51.6875,20.4688 51.6875,24.125 Q51.6875,27.3125 52.8281,28.4375 Q53.3594,28.9688 53.3594,28.9688 Q53.6094,28.9688 54.1406,28.4375 Q54.8125,27.7813 54.875,25.3906 L57.4688,25.3906 Q57.2656,28.375 56.2031,29.4375 Z "/><text fill="#FFFFFF" font-family="sans-serif" font-size="12" lengthAdjust="spacingAndGlyphs" textLength="43" x="67.5" y="28.9102">クラスA</text><line style="stroke: #E0E0E0; stroke-width: 1.5;" x1="39.5" x2="112.5" y1="40" y2="40"/><line style="stroke: #E0E0E0; stroke-width: 1.5;" x1="39.5" x2="112.5" y1="48" y2="48"/><path d="M76,56 C76,72.003 76,93.446 76,110.528 " fill="none" style="stroke: #E0E0E0; stroke-width: 1.0;"/><polygon fill="#E0E0E0" points="76,115.678,80,106.678,76,110.678,72,106.678,76,115.678" style="stroke: #E0E0E0; stroke-width: 1.0;"/><path d="M114.063,140 C124.064,140 134.066,140 144.068,140 " fill="none" style="stroke: #E0E0E0; stroke-width: 1.0;"/><polygon fill="#E0E0E0" points="149.298,140,140.298,136,144.298,140,140.298,144,149.298,140" style="stroke: #E0E0E0; stroke-width: 1.0;"/><path d="M188,164.234 C188,184.247 188,213.2 188,234.5876 " fill="none" style="stroke: #E0E0E0; stroke-width: 1.0;"/><polygon fill="#E0E0E0" points="188,239.8521,192,230.8521,188,234.8521,184,230.8521,188,239.8521" style="stroke: #E0E0E0; stroke-width: 1.0;"/></g></svg>