<?xml version="1.0" encoding="UTF-8" standalone="yes"?><svg xmlns="http://www.w3.org/2000/svg" xmlns:xlink="http://www.w3.org/1999/xlink" height="191px" style="width:502px;height:191px;" version="1.1" viewBox="0 0 502 191" width="502px"><defs><filter height="300%" id="f1" width="300%" x="-1" y="-1"><feGaussianBlur result="blurOut" stdDeviation="2.0"/><feColorMatrix in="blurOut" result="blurOut2" type="matrix" values="0 0 0 0 0 0 0 0 0 0 0 0 0 0 0 0 0 0 .4 0"/><feOffset dx="4.0" dy="4.0" in="blurOut2" result="blurOut3"/><feBlend in="SourceGraphic" in2="blurOut3" mode="normal"/></filter></defs><g><rect fill="#508050" filter="url(#f1)" height="48" style="stroke: #E0E0E0; stroke-width: 1.5;" width="62" x="208.5" y="8"/><ellipse cx="223.5" cy="24" fill="#ADD1B2" rx="11" ry="11" style="stroke: #E0E0E0; stroke-width: 1.0;"/><path d="M226.2031,29.4375 Q225.2813,30.3594 223.0156,30.3594 Q221.75,30.3594 220.8281,29.4375 Q219.1719,27.7813 219.1719,24.25 Q219.1719,20.1406 220.9531,18.3438 Q221.8906,17.4219 223.0781,17.4219 Q225.3438,17.4219 226.0781,18.1406 Q227.4688,19.5469 227.4063,21.9375 L224.9375,21.9375 Q224.875,19.8125 224.1406,19.0781 Q223.75,18.6719 223.0781,18.6719 Q223.0781,18.6719 223.0156,19.1406 Q221.6875,20.4688 221.6875,24.125 Q221.6875,27.3125 222.8281,28.4375 Q223.3594,28.9688 223.3594,28.9688 Q223.6094,28.9688 224.1406,28.4375 Q224.8125,27.7813 224.875,25.3906 L227.4688,25.3906 Q227.2656,28.375 226.2031,29.4375 Z "/><text fill="#FFFFFF" font-family="sans-serif" font-size="12" lengthAdjust="spacingAndGlyphs" textLength="30" x="237.5" y="28.9102">Hoge</text><line style="stroke: #E0E0E0; stroke-width: 1.5;" x1="209.5" x2="269.5" y1="40" y2="40"/><line style="stroke: #E0E0E0; stroke-width: 1.5;" x1="209.5" x2="269.5" y1="48" y2="48"/><rect fill="#508050" filter="url(#f1)" height="48" style="stroke: #E0E0E0; stroke-width: 1.5;" width="53" x="6" y="134"/><ellipse cx="21" cy="150" fill="#ADD1B2" rx="11" ry="11" style="stroke: #E0E0E0; stroke-width: 1.0;"/><path d="M23.7031,155.4375 Q22.7813,156.3594 20.5156,156.3594 Q19.25,156.3594 18.3281,155.4375 Q16.6719,153.7813 16.6719,150.25 Q16.6719,146.1406 18.4531,144.3438 Q19.3906,143.4219 20.5781,143.4219 Q22.8438,143.4219 23.5781,144.1406 Q24.9688,145.5469 24.9063,147.9375 L22.4375,147.9375 Q22.375,145.8125 21.6406,145.0781 Q21.25,144.6719 20.5781,144.6719 Q20.5781,144.6719 20.5156,145.1406 Q19.1875,146.4688 19.1875,150.125 Q19.1875,153.3125 20.3281,154.4375 Q20.8594,154.9688 20.8594,154.9688 Q21.1094,154.9688 21.6406,154.4375 Q22.3125,153.7813 22.375,151.3906 L24.9688,151.3906 Q24.7656,154.375 23.7031,155.4375 Z "/><text fill="#FFFFFF" font-family="sans-serif" font-size="12" lengthAdjust="spacingAndGlyphs" textLength="21" x="35" y="154.9102">Foo</text><line style="stroke: #E0E0E0; stroke-width: 1.5;" x1="7" x2="58" y1="166" y2="166"/><line style="stroke: #E0E0E0; stroke-width: 1.5;" x1="7" x2="58" y1="174" y2="174"/><rect fill="#508050" filter="url(#f1)" height="48" style="stroke: #E0E0E0; stroke-width: 1.5;" width="84" x="94.5" y="134"/><ellipse cx="109.5" cy="150" fill="#ADD1B2" rx="11" ry="11" style="stroke: #E0E0E0; stroke-width: 1.0;"/><path d="M112.2031,155.4375 Q111.2813,156.3594 109.0156,156.3594 Q107.75,156.3594 106.8281,155.4375 Q105.1719,153.7813 105.1719,150.25 Q105.1719,146.1406 106.9531,144.3438 Q107.8906,143.4219 109.0781,143.4219 Q111.3438,143.4219 112.0781,144.1406 Q113.4688,145.5469 113.4063,147.9375 L110.9375,147.9375 Q110.875,145.8125 110.1406,145.0781 Q109.75,144.6719 109.0781,144.6719 Q109.0781,144.6719 109.0156,145.1406 Q107.6875,146.4688 107.6875,150.125 Q107.6875,153.3125 108.8281,154.4375 Q109.3594,154.9688 109.3594,154.9688 Q109.6094,154.9688 110.1406,154.4375 Q110.8125,153.7813 110.875,151.3906 L113.4688,151.3906 Q113.2656,154.375 112.2031,155.4375 Z "/><text fill="#FFFFFF" font-family="sans-serif" font-size="12" lengthAdjust="spacingAndGlyphs" textLength="52" x="123.5" y="154.9102">SubHoge</text><line style="stroke: #E0E0E0; stroke-width: 1.5;" x1="95.5" x2="177.5" y1="166" y2="166"/><line style="stroke: #E0E0E0; stroke-width: 1.5;" x1="95.5" x2="177.5" y1="174" y2="174"/><rect fill="#508050" filter="url(#f1)" height="48" style="stroke: #E0E0E0; stroke-width: 1.5;" width="51" x="214" y="134"/><ellipse cx="229" cy="150" fill="#ADD1B2" rx="11" ry="11" style="stroke: #E0E0E0; stroke-width: 1.0;"/><path d="M231.7031,155.4375 Q230.7813,156.3594 228.5156,156.3594 Q227.25,156.3594 226.3281,155.4375 Q224.6719,153.7813 224.6719,150.25 Q224.6719,146.1406 226.4531,144.3438 Q227.3906,143.4219 228.5781,143.4219 Q230.8438,143.4219 231.5781,144.1406 Q232.9688,145.5469 232.9063,147.9375 L230.4375,147.9375 Q230.375,145.8125 229.6406,145.0781 Q229.25,144.6719 228.5781,144.6719 Q228.5781,144.6719 228.5156,145.1406 Q227.1875,146.4688 227.1875,150.125 Q227.1875,153.3125 228.3281,154.4375 Q228.8594,154.9688 228.8594,154.9688 Q229.1094,154.9688 229.6406,154.4375 Q230.3125,153.7813 230.375,151.3906 L232.9688,151.3906 Q232.7656,154.375 231.7031,155.4375 Z "/><text fill="#FFFFFF" font-family="sans-serif" font-size="12" lengthAdjust="spacingAndGlyphs" textLength="19" x="243" y="154.9102">Bar</text><line style="stroke: #E0E0E0; stroke-width: 1.5;" x1="215" x2="264" y1="166" y2="166"/><line style="stroke: #E0E0E0; stroke-width: 1.5;" x1="215" x2="264" y1="174" y2="174"/><rect fill="#508050" filter="url(#f1)" height="48" style="stroke: #E0E0E0; stroke-width: 1.5;" width="55" x="300" y="134"/><ellipse cx="315" cy="150" fill="#ADD1B2" rx="11" ry="11" style="stroke: #E0E0E0; stroke-width: 1.0;"/><path d="M317.7031,155.4375 Q316.7813,156.3594 314.5156,156.3594 Q313.25,156.3594 312.3281,155.4375 Q310.6719,153.7813 310.6719,150.25 Q310.6719,146.1406 312.4531,144.3438 Q313.3906,143.4219 314.5781,143.4219 Q316.8438,143.4219 317.5781,144.1406 Q318.9688,145.5469 318.9063,147.9375 L316.4375,147.9375 Q316.375,145.8125 315.6406,145.0781 Q315.25,144.6719 314.5781,144.6719 Q314.5781,144.6719 314.5156,145.1406 Q313.1875,146.4688 313.1875,150.125 Q313.1875,153.3125 314.3281,154.4375 Q314.8594,154.9688 314.8594,154.9688 Q315.1094,154.9688 315.6406,154.4375 Q316.3125,153.7813 316.375,151.3906 L318.9688,151.3906 Q318.7656,154.375 317.7031,155.4375 Z "/><text fill="#FFFFFF" font-family="sans-serif" font-size="12" lengthAdjust="spacingAndGlyphs" textLength="23" x="329" y="154.9102">Piyo</text><line style="stroke: #E0E0E0; stroke-width: 1.5;" x1="301" x2="354" y1="166" y2="166"/><line style="stroke: #E0E0E0; stroke-width: 1.5;" x1="301" x2="354" y1="174" y2="174"/><rect fill="#508050" filter="url(#f1)" height="48" style="stroke: #E0E0E0; stroke-width: 1.5;" width="86" x="407.5" y="134"/><ellipse cx="422.5" cy="150" fill="#ADD1B2" rx="11" ry="11" style="stroke: #E0E0E0; stroke-width: 1.0;"/><path d="M425.2031,155.4375 Q424.2813,156.3594 422.0156,156.3594 Q420.75,156.3594 419.8281,155.4375 Q418.1719,153.7813 418.1719,150.25 Q418.1719,146.1406 419.9531,144.3438 Q420.8906,143.4219 422.0781,143.4219 Q424.3438,143.4219 425.0781,144.1406 Q426.4688,145.5469 426.4063,147.9375 L423.9375,147.9375 Q423.875,145.8125 423.1406,145.0781 Q422.75,144.6719 422.0781,144.6719 Q422.0781,144.6719 422.0156,145.1406 Q420.6875,146.4688 420.6875,150.125 Q420.6875,153.3125 421.8281,154.4375 Q422.3594,154.9688 422.3594,154.9688 Q422.6094,154.9688 423.1406,154.4375 Q423.8125,153.7813 423.875,151.3906 L426.4688,151.3906 Q426.2656,154.375 425.2031,155.4375 Z "/><text fill="#FFFFFF" font-family="sans-serif" font-size="12" lengthAdjust="spacingAndGlyphs" textLength="54" x="436.5" y="154.9102">HogeImpl</text><line style="stroke: #E0E0E0; stroke-width: 1.5;" x1="408.5" x2="492.5" y1="166" y2="166"/><line style="stroke: #E0E0E0; stroke-width: 1.5;" x1="408.5" x2="492.5" y1="174" y2="174"/><path d="M208.325,50.366 C190.183,60.571 166.933,73.821 146.5,86 C118.147,102.8994 86.2919,122.8196 63.4775,137.2521 " fill="none" style="stroke: #E0E0E0; stroke-width: 1.0;"/><polygon fill="#E0E0E0" points="59.0389,140.0629,68.7826,138.6273,63.2632,137.3879,64.5026,131.8685,59.0389,140.0629" style="stroke: #E0E0E0; stroke-width: 1.0;"/><text fill="#FFFFFF" font-family="sans-serif" font-size="13" lengthAdjust="spacingAndGlyphs" textLength="26" x="147.5" y="100.4951">関連</text><path d="M207.42,71.621 C190.531,91.9525 170.378,116.2146 155.879,133.6697 " fill="none" style="stroke: #E0E0E0; stroke-width: 1.0;"/><polygon fill="none" points="202.204,66.945,220.368,56.033,212.973,75.89,202.204,66.945" style="stroke: #E0E0E0; stroke-width: 1.0;"/><text fill="#FFFFFF" font-family="sans-serif" font-size="13" lengthAdjust="spacingAndGlyphs" textLength="26" x="195.5" y="100.4951">汎化</text><path d="M239.5,69.212 C239.5,90.0104 239.5,115.5199 239.5,133.6697 " fill="none" style="stroke: #E0E0E0; stroke-width: 1.0;"/><polygon fill="none" points="239.5,56.033,235.5,62.033,239.5,68.033,243.5,62.033,239.5,56.033" style="stroke: #E0E0E0; stroke-width: 1.0;"/><text fill="#FFFFFF" font-family="sans-serif" font-size="13" lengthAdjust="spacingAndGlyphs" textLength="26" x="240.5" y="100.4951">集約</text><path d="M263.519,66.845 C278.565,88.0468 297.569,114.8251 310.943,133.6697 " fill="none" style="stroke: #E0E0E0; stroke-width: 1.0;"/><polygon fill="#E0E0E0" points="255.846,56.033,256.0568,63.241,262.7914,65.8188,262.5806,58.6108,255.846,56.033" style="stroke: #E0E0E0; stroke-width: 1.0;"/><text fill="#FFFFFF" font-family="sans-serif" font-size="13" lengthAdjust="spacingAndGlyphs" textLength="91" x="290.5" y="100.4951">コンポジション</text><path d="M290.47,43.681 C321.322,51.826 360.387,65.25 390.5,86 C408.839,98.6369 424.841,118.2814 435.697,133.7063 " fill="none" style="stroke: #E0E0E0; stroke-width: 1.0; stroke-dasharray: 7.0,7.0;"/><polygon fill="none" points="288.416,50.385,270.635,38.86,291.722,36.781,288.416,50.385" style="stroke: #E0E0E0; stroke-width: 1.0;"/><text fill="#FFFFFF" font-family="sans-serif" font-size="13" lengthAdjust="spacingAndGlyphs" textLength="26" x="411.5" y="100.4951">実現</text></g></svg>