<?xml version="1.0" encoding="UTF-8" standalone="yes"?><svg xmlns="http://www.w3.org/2000/svg" xmlns:xlink="http://www.w3.org/1999/xlink" height="92px" style="width:241px;height:92px;" version="1.1" viewBox="0 0 241 92" width="241px"><defs><filter height="300%" id="f1" width="300%" x="-1" y="-1"><feGaussianBlur result="blurOut" stdDeviation="2.0"/><feColorMatrix in="blurOut" result="blurOut2" type="matrix" values="0 0 0 0 0 0 0 0 0 0 0 0 0 0 0 0 0 0 .4 0"/><feOffset dx="4.0" dy="4.0" in="blurOut2" result="blurOut3"/><feBlend in="SourceGraphic" in2="blurOut3" mode="normal"/></filter></defs><g><rect fill="#508050" filter="url(#f1)" height="75.6719" style="stroke: #E0E0E0; stroke-width: 1.5;" width="138" x="6" y="8"/><ellipse cx="55.75" cy="24" fill="#ADD1B2" rx="11" ry="11" style="stroke: #E0E0E0; stroke-width: 1.0;"/><path d="M58.4531,29.4375 Q57.5313,30.3594 55.2656,30.3594 Q54,30.3594 53.0781,29.4375 Q51.4219,27.7813 51.4219,24.25 Q51.4219,20.1406 53.2031,18.3438 Q54.1406,17.4219 55.3281,17.4219 Q57.5938,17.4219 58.3281,18.1406 Q59.7188,19.5469 59.6563,21.9375 L57.1875,21.9375 Q57.125,19.8125 56.3906,19.0781 Q56,18.6719 55.3281,18.6719 Q55.3281,18.6719 55.2656,19.1406 Q53.9375,20.4688 53.9375,24.125 Q53.9375,27.3125 55.0781,28.4375 Q55.6094,28.9688 55.6094,28.9688 Q55.8594,28.9688 56.3906,28.4375 Q57.0625,27.7813 57.125,25.3906 L59.7188,25.3906 Q59.5156,28.375 58.4531,29.4375 Z "/><text fill="#FFFFFF" font-family="sans-serif" font-size="12" lengthAdjust="spacingAndGlyphs" textLength="30" x="76.25" y="28.9102">Hoge</text><line style="stroke: #E0E0E0; stroke-width: 1.5;" x1="7" x2="143" y1="40" y2="40"/><rect fill="none" height="6" style="stroke: #C82930; stroke-width: 1.0;" width="6" x="14" y="49.418"/><text fill="#FFFFFF" font-family="sans-serif" font-size="11" lengthAdjust="spacingAndGlyphs" textLength="36" x="26" y="55.4189">int Field</text><line style="stroke: #E0E0E0; stroke-width: 1.5;" x1="7" x2="143" y1="61.8359" y2="61.8359"/><ellipse cx="17" cy="74.2539" fill="#84BE84" rx="3" ry="3" style="stroke: #038048; stroke-width: 1.0;"/><text fill="#FFFFFF" font-family="sans-serif" font-size="11" lengthAdjust="spacingAndGlyphs" textLength="112" x="26" y="77.2549">bool Method(string arg)</text><rect fill="#508050" filter="url(#f1)" height="48" style="stroke: #E0E0E0; stroke-width: 1.5;" width="53" x="179.5" y="22"/><ellipse cx="194.5" cy="38" fill="#ADD1B2" rx="11" ry="11" style="stroke: #E0E0E0; stroke-width: 1.0;"/><path d="M197.2031,43.4375 Q196.2813,44.3594 194.0156,44.3594 Q192.75,44.3594 191.8281,43.4375 Q190.1719,41.7813 190.1719,38.25 Q190.1719,34.1406 191.9531,32.3438 Q192.8906,31.4219 194.0781,31.4219 Q196.3438,31.4219 197.0781,32.1406 Q198.4688,33.5469 198.4063,35.9375 L195.9375,35.9375 Q195.875,33.8125 195.1406,33.0781 Q194.75,32.6719 194.0781,32.6719 Q194.0781,32.6719 194.0156,33.1406 Q192.6875,34.4688 192.6875,38.125 Q192.6875,41.3125 193.8281,42.4375 Q194.3594,42.9688 194.3594,42.9688 Q194.6094,42.9688 195.1406,42.4375 Q195.8125,41.7813 195.875,39.3906 L198.4688,39.3906 Q198.2656,42.375 197.2031,43.4375 Z "/><text fill="#FFFFFF" font-family="sans-serif" font-size="12" lengthAdjust="spacingAndGlyphs" textLength="21" x="208.5" y="42.9102">Foo</text><line style="stroke: #E0E0E0; stroke-width: 1.5;" x1="180.5" x2="231.5" y1="54" y2="54"/><line style="stroke: #E0E0E0; stroke-width: 1.5;" x1="180.5" x2="231.5" y1="62" y2="62"/><path d="M144.082,46 C154.106,46 164.129,46 174.153,46 " fill="none" style="stroke: #E0E0E0; stroke-width: 1.0;"/><polygon fill="#E0E0E0" points="179.395,46,170.395,42,174.395,46,170.395,50,179.395,46" style="stroke: #E0E0E0; stroke-width: 1.0;"/></g></svg>