<?xml version="1.0" encoding="UTF-8" standalone="yes"?><svg xmlns="http://www.w3.org/2000/svg" xmlns:xlink="http://www.w3.org/1999/xlink" height="233px" style="width:192px;height:233px;" version="1.1" viewBox="0 0 192 233" width="192px"><defs><filter height="300%" id="f1" width="300%" x="-1" y="-1"><feGaussianBlur result="blurOut" stdDeviation="2.0"/><feColorMatrix in="blurOut" result="blurOut2" type="matrix" values="0 0 0 0 0 0 0 0 0 0 0 0 0 0 0 0 0 0 .4 0"/><feOffset dx="4.0" dy="4.0" in="blurOut2" result="blurOut3"/><feBlend in="SourceGraphic" in2="blurOut3" mode="normal"/></filter></defs><g><rect fill="#80D080" filter="url(#f1)" height="103.7031" style="stroke: #E0E0E0; stroke-width: 1.0;" width="10" x="117.5" y="71.6094"/><rect fill="#80A080" filter="url(#f1)" height="28" style="stroke: #E0E0E0; stroke-width: 1.0;" width="10" x="122.5" y="109.9609"/><line style="stroke: #E0E0E0; stroke-width: 1.0; stroke-dasharray: 5.0,5.0;" x1="33" x2="33" y1="39.6094" y2="193.6641"/><line style="stroke: #E0E0E0; stroke-width: 1.0; stroke-dasharray: 5.0,5.0;" x1="122.5" x2="122.5" y1="39.6094" y2="193.6641"/><rect fill="#508050" filter="url(#f1)" height="31.6094" style="stroke: #E0E0E0; stroke-width: 1.5;" width="47" x="8" y="3"/><text fill="#FFFFFF" font-family="sans-serif" font-size="14" font-weight="bold" lengthAdjust="spacingAndGlyphs" textLength="33" x="15" y="24.5332">main</text><rect fill="#508050" filter="url(#f1)" height="31.6094" style="stroke: #E0E0E0; stroke-width: 1.5;" width="47" x="8" y="192.6641"/><text fill="#FFFFFF" font-family="sans-serif" font-size="14" font-weight="bold" lengthAdjust="spacingAndGlyphs" textLength="33" x="15" y="214.1973">main</text><rect fill="#508050" filter="url(#f1)" height="31.6094" style="stroke: #E0E0E0; stroke-width: 1.5;" width="40" x="100.5" y="3"/><text fill="#FFFFFF" font-family="sans-serif" font-size="14" font-weight="bold" lengthAdjust="spacingAndGlyphs" textLength="26" x="107.5" y="24.5332">sub</text><rect fill="#508050" filter="url(#f1)" height="31.6094" style="stroke: #E0E0E0; stroke-width: 1.5;" width="40" x="100.5" y="192.6641"/><text fill="#FFFFFF" font-family="sans-serif" font-size="14" font-weight="bold" lengthAdjust="spacingAndGlyphs" textLength="26" x="107.5" y="214.1973">sub</text><rect fill="#80D080" filter="url(#f1)" height="103.7031" style="stroke: #E0E0E0; stroke-width: 1.0;" width="10" x="117.5" y="71.6094"/><rect fill="#80A080" filter="url(#f1)" height="28" style="stroke: #E0E0E0; stroke-width: 1.0;" width="10" x="122.5" y="109.9609"/><polygon fill="#E0E0E0" points="105.5,67.6094,115.5,71.6094,105.5,75.6094,109.5,71.6094" style="stroke: #E0E0E0; stroke-width: 1.0;"/><line style="stroke: #E0E0E0; stroke-width: 1.0;" x1="33.5" x2="111.5" y1="71.6094" y2="71.6094"/><text fill="#FFFFFF" font-family="sans-serif" font-size="13" lengthAdjust="spacingAndGlyphs" textLength="65" x="40.5" y="67.1045">メッセージ</text><line style="stroke: #E0E0E0; stroke-width: 1.0;" x1="132.5" x2="174.5" y1="102.3125" y2="102.3125"/><line style="stroke: #E0E0E0; stroke-width: 1.0;" x1="174.5" x2="174.5" y1="102.3125" y2="115.3125"/><line style="stroke: #E0E0E0; stroke-width: 1.0;" x1="133.5" x2="174.5" y1="115.3125" y2="115.3125"/><polygon fill="#E0E0E0" points="143.5,111.3125,133.5,115.3125,143.5,119.3125,139.5,115.3125" style="stroke: #E0E0E0; stroke-width: 1.0;"/><text fill="#FFFFFF" font-family="sans-serif" font-size="13" lengthAdjust="spacingAndGlyphs" textLength="52" x="139.5" y="97.4561">内部処理</text><polygon fill="#E0E0E0" points="44.5,171.3125,34.5,175.3125,44.5,179.3125,40.5,175.3125" style="stroke: #E0E0E0; stroke-width: 1.0;"/><line style="stroke: #E0E0E0; stroke-width: 1.0; stroke-dasharray: 2.0,2.0;" x1="38.5" x2="121.5" y1="175.3125" y2="175.3125"/><text fill="#FFFFFF" font-family="sans-serif" font-size="13" lengthAdjust="spacingAndGlyphs" textLength="26" x="50.5" y="170.8076">結果</text></g></svg>