<?xml version="1.0" encoding="UTF-8" standalone="yes"?><svg xmlns="http://www.w3.org/2000/svg" xmlns:xlink="http://www.w3.org/1999/xlink" height="296px" style="width:301px;height:296px;" version="1.1" viewBox="0 0 301 296" width="301px"><defs><filter height="300%" id="f1" width="300%" x="-1" y="-1"><feGaussianBlur result="blurOut" stdDeviation="2.0"/><feColorMatrix in="blurOut" result="blurOut2" type="matrix" values="0 0 0 0 0 0 0 0 0 0 0 0 0 0 0 0 0 0 .4 0"/><feOffset dx="4.0" dy="4.0" in="blurOut2" result="blurOut3"/><feBlend in="SourceGraphic" in2="blurOut3" mode="normal"/></filter></defs><g><rect fill="#8080C0" filter="url(#f1)" height="153.2422" style="stroke: #000000; stroke-width: 2.0;" width="173" x="119.5" y="86.9609"/><rect fill="#9898D0" filter="url(#f1)" height="61.7031" style="stroke: #000000; stroke-width: 2.0;" width="137" x="129.5" y="112.3125"/><rect fill="#8080C0" height="59.1875" style="stroke: none; stroke-width: 1.0;" width="173" x="119.5" y="181.0156"/><line style="stroke: #E0E0E0; stroke-width: 1.0; stroke-dasharray: 5.0,5.0;" x1="33" x2="33" y1="39.6094" y2="257.2031"/><line style="stroke: #E0E0E0; stroke-width: 1.0; stroke-dasharray: 5.0,5.0;" x1="161.5" x2="161.5" y1="39.6094" y2="257.2031"/><rect fill="#508050" filter="url(#f1)" height="31.6094" style="stroke: #E0E0E0; stroke-width: 1.5;" width="47" x="8" y="3"/><text fill="#FFFFFF" font-family="sans-serif" font-size="14" font-weight="bold" lengthAdjust="spacingAndGlyphs" textLength="33" x="15" y="24.5332">main</text><rect fill="#508050" filter="url(#f1)" height="31.6094" style="stroke: #E0E0E0; stroke-width: 1.5;" width="47" x="8" y="256.2031"/><text fill="#FFFFFF" font-family="sans-serif" font-size="14" font-weight="bold" lengthAdjust="spacingAndGlyphs" textLength="33" x="15" y="277.7363">main</text><rect fill="#508050" filter="url(#f1)" height="31.6094" style="stroke: #E0E0E0; stroke-width: 1.5;" width="40" x="139.5" y="3"/><text fill="#FFFFFF" font-family="sans-serif" font-size="14" font-weight="bold" lengthAdjust="spacingAndGlyphs" textLength="26" x="146.5" y="24.5332">sub</text><rect fill="#508050" filter="url(#f1)" height="31.6094" style="stroke: #E0E0E0; stroke-width: 1.5;" width="40" x="139.5" y="256.2031"/><text fill="#FFFFFF" font-family="sans-serif" font-size="14" font-weight="bold" lengthAdjust="spacingAndGlyphs" textLength="26" x="146.5" y="277.7363">sub</text><line style="stroke: #E0E0E0; stroke-width: 1.0;" x1="159.5" x2="149.5" y1="71.6094" y2="67.6094"/><line style="stroke: #E0E0E0; stroke-width: 1.0;" x1="159.5" x2="149.5" y1="71.6094" y2="75.6094"/><line style="stroke: #E0E0E0; stroke-width: 1.0;" x1="33.5" x2="160.5" y1="71.6094" y2="71.6094"/><text fill="#FFFFFF" font-family="sans-serif" font-size="13" lengthAdjust="spacingAndGlyphs" textLength="104" x="40.5" y="67.1045">ファイル読み込み</text><rect fill="none" height="153.2422" style="stroke: #000000; stroke-width: 2.0;" width="173" x="119.5" y="86.9609"/><polygon fill="#EEEEEE" points="119.5,86.9609,180.5,86.9609,180.5,94.9609,170.5,104.9609,119.5,104.9609,119.5,86.9609" style="stroke: #000000; stroke-width: 2.0;"/><text fill="#000000" font-family="sans-serif" font-size="13" font-weight="bold" lengthAdjust="spacingAndGlyphs" textLength="16" x="134.5" y="101.4561">alt</text><text fill="#000000" font-family="sans-serif" font-size="11" font-weight="bold" lengthAdjust="spacingAndGlyphs" textLength="92" x="195.5" y="100.3799">[ファイルがある]</text><rect fill="none" height="61.7031" style="stroke: #000000; stroke-width: 2.0;" width="137" x="129.5" y="112.3125"/><polygon fill="#EEEEEE" points="129.5,112.3125,202.5,112.3125,202.5,120.3125,192.5,130.3125,129.5,130.3125,129.5,112.3125" style="stroke: #000000; stroke-width: 2.0;"/><text fill="#000000" font-family="sans-serif" font-size="13" font-weight="bold" lengthAdjust="spacingAndGlyphs" textLength="28" x="144.5" y="126.8076">loop</text><text fill="#000000" font-family="sans-serif" font-size="11" font-weight="bold" lengthAdjust="spacingAndGlyphs" textLength="44" x="217.5" y="125.7314">[1, 行数]</text><line style="stroke: #E0E0E0; stroke-width: 1.0;" x1="161.5" x2="203.5" y1="153.0156" y2="153.0156"/><line style="stroke: #E0E0E0; stroke-width: 1.0;" x1="203.5" x2="203.5" y1="153.0156" y2="166.0156"/><line style="stroke: #E0E0E0; stroke-width: 1.0;" x1="162.5" x2="203.5" y1="166.0156" y2="166.0156"/><polygon fill="#E0E0E0" points="172.5,162.0156,162.5,166.0156,172.5,170.0156,168.5,166.0156" style="stroke: #E0E0E0; stroke-width: 1.0;"/><text fill="#FFFFFF" font-family="sans-serif" font-size="13" lengthAdjust="spacingAndGlyphs" textLength="78" x="168.5" y="148.1592">一行読み込み</text><line style="stroke: #000000; stroke-width: 1.0; stroke-dasharray: 2.0,2.0;" x1="119.5" x2="292.5" y1="182.0156" y2="182.0156"/><text fill="#000000" font-family="sans-serif" font-size="11" font-weight="bold" lengthAdjust="spacingAndGlyphs" textLength="92" x="124.5" y="193.4346">[ファイルがない]</text><line style="stroke: #E0E0E0; stroke-width: 1.0;" x1="161.5" x2="203.5" y1="219.2031" y2="219.2031"/><line style="stroke: #E0E0E0; stroke-width: 1.0;" x1="203.5" x2="203.5" y1="219.2031" y2="232.2031"/><line style="stroke: #E0E0E0; stroke-width: 1.0;" x1="162.5" x2="203.5" y1="232.2031" y2="232.2031"/><polygon fill="#E0E0E0" points="172.5,228.2031,162.5,232.2031,172.5,236.2031,168.5,232.2031" style="stroke: #E0E0E0; stroke-width: 1.0;"/><text fill="#FFFFFF" font-family="sans-serif" font-size="13" lengthAdjust="spacingAndGlyphs" textLength="65" x="168.5" y="214.3467">エラー表示</text></g></svg>