<?xml version="1.0" encoding="UTF-8" standalone="yes"?><svg xmlns="http://www.w3.org/2000/svg" xmlns:xlink="http://www.w3.org/1999/xlink" height="99px" style="width:247px;height:99px;" version="1.1" viewBox="0 0 247 99" width="247px"><defs><filter height="300%" id="f1" width="300%" x="-1" y="-1"><feGaussianBlur result="blurOut" stdDeviation="2.0"/><feColorMatrix in="blurOut" result="blurOut2" type="matrix" values="0 0 0 0 0 0 0 0 0 0 0 0 0 0 0 0 0 0 .4 0"/><feOffset dx="4.0" dy="4.0" in="blurOut2" result="blurOut3"/><feBlend in="SourceGraphic" in2="blurOut3" mode="normal"/></filter></defs><g><rect fill="#508050" filter="url(#f1)" height="82.8906" rx="12.5" ry="12.5" style="stroke: #E0E0E0; stroke-width: 1.5;" width="124" x="61" y="8"/><line style="stroke: #E0E0E0; stroke-width: 1.5;" x1="61" x2="185" y1="35.6094" y2="35.6094"/><text fill="#FFFFFF" font-family="sans-serif" font-size="14" lengthAdjust="spacingAndGlyphs" textLength="37" x="104.5" y="27.5332">状態A</text><text fill="#FFFFFF" font-family="sans-serif" font-size="12" lengthAdjust="spacingAndGlyphs" textLength="104" x="66" y="53.0664">enter / アクションA</text><text fill="#FFFFFF" font-family="sans-serif" font-size="12" lengthAdjust="spacingAndGlyphs" textLength="91" x="66" y="68.1602">do / アクションB</text><text fill="#FFFFFF" font-family="sans-serif" font-size="12" lengthAdjust="spacingAndGlyphs" textLength="96" x="66" y="83.2539">exit / アクションC</text><ellipse cx="16" cy="49.5" fill="#E0E0E0" filter="url(#f1)" rx="10" ry="10" style="stroke: none; stroke-width: 1.0;"/><ellipse cx="230" cy="49.5" fill="none" filter="url(#f1)" rx="10" ry="10" style="stroke: #E0E0E0; stroke-width: 1.0;"/><ellipse cx="230.5" cy="50" fill="#E0E0E0" rx="6" ry="6" style="stroke: none; stroke-width: 1.0;"/><path d="M26.0313,49.5 C35.923,49.5 45.8148,49.5 55.7066,49.5 " fill="none" style="stroke: #E0E0E0; stroke-width: 1.0;"/><polygon fill="#E0E0E0" points="60.8794,49.5,51.8794,45.5,55.8794,49.5,51.8794,53.5,60.8794,49.5" style="stroke: #E0E0E0; stroke-width: 1.0;"/><path d="M185.277,49.5 C195.096,49.5 204.914,49.5 214.733,49.5 " fill="none" style="stroke: #E0E0E0; stroke-width: 1.0;"/><polygon fill="#E0E0E0" points="219.868,49.5,210.868,45.5,214.868,49.5,210.868,53.5,219.868,49.5" style="stroke: #E0E0E0; stroke-width: 1.0;"/></g></svg>