<?xml version="1.0" encoding="UTF-8" standalone="yes"?><svg xmlns="http://www.w3.org/2000/svg" xmlns:xlink="http://www.w3.org/1999/xlink" height="188px" style="width:433px;height:188px;" version="1.1" viewBox="0 0 433 188" width="433px"><defs><filter height="300%" id="f1" width="300%" x="-1" y="-1"><feGaussianBlur result="blurOut" stdDeviation="2.0"/><feColorMatrix in="blurOut" result="blurOut2" type="matrix" values="0 0 0 0 0 0 0 0 0 0 0 0 0 0 0 0 0 0 .4 0"/><feOffset dx="4.0" dy="4.0" in="blurOut2" result="blurOut3"/><feBlend in="SourceGraphic" in2="blurOut3" mode="normal"/></filter></defs><g><ellipse cx="16" cy="95" fill="#A0A0A0" filter="url(#f1)" rx="10" ry="10" style="stroke: none; stroke-width: 1.0;"/><ellipse cx="416" cy="95" fill="none" filter="url(#f1)" rx="10" ry="10" style="stroke: #A0A0A0; stroke-width: 1.0;"/><ellipse cx="416.5" cy="95.5" fill="#A0A0A0" rx="6" ry="6" style="stroke: none; stroke-width: 1.0;"/><rect fill="#508050" filter="url(#f1)" height="173.6094" rx="12.5" ry="12.5" style="stroke: #A0A0A0; stroke-width: 1.5;" width="309" x="61.5" y="8"/><rect fill="#FFFFFF" height="140" rx="12.5" ry="12.5" style="stroke: #FFFFFF; stroke-width: 1.0;" width="303" x="64.5" y="38.6094"/><line style="stroke: #A0A0A0; stroke-width: 1.5;" x1="61.5" x2="370.5" y1="35.6094" y2="35.6094"/><text fill="#FFFFFF" font-family="sans-serif" font-size="14" lengthAdjust="spacingAndGlyphs" textLength="37" x="197.5" y="27.5332">状態A</text><ellipse cx="82.5" cy="73.6094" fill="#A0A0A0" filter="url(#f1)" rx="10" ry="10" style="stroke: none; stroke-width: 1.0;"/><rect fill="#508050" filter="url(#f1)" height="50" rx="12.5" ry="12.5" style="stroke: #A0A0A0; stroke-width: 1.5;" width="85" x="111" y="48.6094"/><line style="stroke: #A0A0A0; stroke-width: 1.5;" x1="111" x2="196" y1="76.2188" y2="76.2188"/><text fill="#FFFFFF" font-family="sans-serif" font-size="14" lengthAdjust="spacingAndGlyphs" textLength="65" x="121" y="68.1426">内部状態A</text><rect fill="#508050" filter="url(#f1)" height="50" rx="12.5" ry="12.5" style="stroke: #A0A0A0; stroke-width: 1.5;" width="85" x="214" y="48.6094"/><line style="stroke: #A0A0A0; stroke-width: 1.5;" x1="214" x2="299" y1="76.2188" y2="76.2188"/><text fill="#FFFFFF" font-family="sans-serif" font-size="14" lengthAdjust="spacingAndGlyphs" textLength="65" x="224" y="68.1426">内部状態B</text><ellipse cx="327.5" cy="73.6094" fill="none" filter="url(#f1)" rx="10" ry="10" style="stroke: #A0A0A0; stroke-width: 1.0;"/><ellipse cx="328" cy="74.1094" fill="#A0A0A0" rx="6" ry="6" style="stroke: none; stroke-width: 1.0;"/><path d="M92.7617,73.6094 C97.0818,73.6094 101.4019,73.6094 105.722,73.6094 " fill="none" style="stroke: #A0A0A0; stroke-width: 1.0;"/><polygon fill="#A0A0A0" points="110.7934,73.6094,101.7934,69.6094,105.7934,73.6094,101.7934,77.6094,110.7934,73.6094" style="stroke: #A0A0A0; stroke-width: 1.0;"/><path d="M196.148,73.6094 C200.237,73.6094 204.326,73.6094 208.415,73.6094 " fill="none" style="stroke: #A0A0A0; stroke-width: 1.0;"/><polygon fill="#A0A0A0" points="213.594,73.6094,204.594,69.6094,208.594,73.6094,204.594,77.6094,213.594,73.6094" style="stroke: #A0A0A0; stroke-width: 1.0;"/><path d="M299.211,73.6094 C303.553,73.6094 307.895,73.6094 312.237,73.6094 " fill="none" style="stroke: #A0A0A0; stroke-width: 1.0;"/><polygon fill="#A0A0A0" points="317.334,73.6094,308.334,69.6094,312.334,73.6094,308.334,77.6094,317.334,73.6094" style="stroke: #A0A0A0; stroke-width: 1.0;"/><line style="stroke: #A0A0A0; stroke-width: 1.5; stroke-dasharray: 8.0,10.0;" x1="66.5" x2="363.5" y1="108.6094" y2="108.6094"/><ellipse cx="82.5" cy="141.6094" fill="#A0A0A0" filter="url(#f1)" rx="10" ry="10" style="stroke: none; stroke-width: 1.0;"/><rect fill="#508050" filter="url(#f1)" height="50" rx="12.5" ry="12.5" style="stroke: #A0A0A0; stroke-width: 1.5;" width="86" x="110.5" y="116.6094"/><line style="stroke: #A0A0A0; stroke-width: 1.5;" x1="110.5" x2="196.5" y1="144.2188" y2="144.2188"/><text fill="#FFFFFF" font-family="sans-serif" font-size="14" lengthAdjust="spacingAndGlyphs" textLength="66" x="120.5" y="136.1426">内部状態C</text><path d="M92.7617,141.6094 C96.8767,141.6094 100.9916,141.6094 105.1066,141.6094 " fill="none" style="stroke: #A0A0A0; stroke-width: 1.0;"/><polygon fill="#A0A0A0" points="110.3189,141.6094,101.3189,137.6094,105.3189,141.6094,101.3189,145.6094,110.3189,141.6094" style="stroke: #A0A0A0; stroke-width: 1.0;"/><path d="M196.536,132.3998 C206.855,133.1196 214.5,136.1895 214.5,141.6094 C214.5,146.0978 209.257,148.9745 201.594,150.2396 " fill="none" style="stroke: #A0A0A0; stroke-width: 1.0;"/><polygon fill="#A0A0A0" points="196.536,150.819,205.9333,153.7669,201.5034,150.249,205.0213,145.8191,196.536,150.819" style="stroke: #A0A0A0; stroke-width: 1.0;"/><path d="M26.1563,95 C36.155,95 46.1537,95 56.1525,95 " fill="none" style="stroke: #A0A0A0; stroke-width: 1.0;"/><polygon fill="#A0A0A0" points="61.3812,95,52.3812,91,56.3812,95,52.3812,99,61.3812,95" style="stroke: #A0A0A0; stroke-width: 1.0;"/><path d="M370.688,95 C380.636,95 390.584,95 400.532,95 " fill="none" style="stroke: #A0A0A0; stroke-width: 1.0;"/><polygon fill="#A0A0A0" points="405.734,95,396.734,91,400.734,95,396.734,99,405.734,95" style="stroke: #A0A0A0; stroke-width: 1.0;"/></g></svg>