<?xml version="1.0" encoding="UTF-8" standalone="yes"?><svg xmlns="http://www.w3.org/2000/svg" xmlns:xlink="http://www.w3.org/1999/xlink" height="120px" style="width:433px;height:120px;" version="1.1" viewBox="0 0 433 120" width="433px"><defs><filter height="300%" id="f1" width="300%" x="-1" y="-1"><feGaussianBlur result="blurOut" stdDeviation="2.0"/><feColorMatrix in="blurOut" result="blurOut2" type="matrix" values="0 0 0 0 0 0 0 0 0 0 0 0 0 0 0 0 0 0 .4 0"/><feOffset dx="4.0" dy="4.0" in="blurOut2" result="blurOut3"/><feBlend in="SourceGraphic" in2="blurOut3" mode="normal"/></filter></defs><g><ellipse cx="16" cy="61" fill="#A0A0A0" filter="url(#f1)" rx="10" ry="10" style="stroke: none; stroke-width: 1.0;"/><ellipse cx="416" cy="61" fill="none" filter="url(#f1)" rx="10" ry="10" style="stroke: #A0A0A0; stroke-width: 1.0;"/><ellipse cx="416.5" cy="61.5" fill="#A0A0A0" rx="6" ry="6" style="stroke: none; stroke-width: 1.0;"/><rect fill="#508050" filter="url(#f1)" height="105.6094" rx="12.5" ry="12.5" style="stroke: #E0E0E0; stroke-width: 1.5;" width="309" x="61.5" y="8"/><rect fill="#FFFFFF" height="72" rx="12.5" ry="12.5" style="stroke: #FFFFFF; stroke-width: 1.0;" width="303" x="64.5" y="38.6094"/><line style="stroke: #E0E0E0; stroke-width: 1.5;" x1="61.5" x2="370.5" y1="35.6094" y2="35.6094"/><text fill="#FFFFFF" font-family="sans-serif" font-size="14" lengthAdjust="spacingAndGlyphs" textLength="37" x="197.5" y="27.5332">状態A</text><ellipse cx="82.5" cy="73.6094" fill="#A0A0A0" filter="url(#f1)" rx="10" ry="10" style="stroke: none; stroke-width: 1.0;"/><rect fill="#508050" filter="url(#f1)" height="50" rx="12.5" ry="12.5" style="stroke: #E0E0E0; stroke-width: 1.5;" width="85" x="111" y="48.6094"/><line style="stroke: #E0E0E0; stroke-width: 1.5;" x1="111" x2="196" y1="76.2188" y2="76.2188"/><text fill="#FFFFFF" font-family="sans-serif" font-size="14" lengthAdjust="spacingAndGlyphs" textLength="65" x="121" y="68.1426">内部状態A</text><rect fill="#508050" filter="url(#f1)" height="50" rx="12.5" ry="12.5" style="stroke: #E0E0E0; stroke-width: 1.5;" width="85" x="214" y="48.6094"/><line style="stroke: #E0E0E0; stroke-width: 1.5;" x1="214" x2="299" y1="76.2188" y2="76.2188"/><text fill="#FFFFFF" font-family="sans-serif" font-size="14" lengthAdjust="spacingAndGlyphs" textLength="65" x="224" y="68.1426">内部状態B</text><ellipse cx="327.5" cy="73.6094" fill="none" filter="url(#f1)" rx="10" ry="10" style="stroke: #A0A0A0; stroke-width: 1.0;"/><ellipse cx="328" cy="74.1094" fill="#A0A0A0" rx="6" ry="6" style="stroke: none; stroke-width: 1.0;"/><path d="M92.7617,73.6094 C97.0818,73.6094 101.4019,73.6094 105.722,73.6094 " fill="none" style="stroke: #A0A0A0; stroke-width: 1.0;"/><polygon fill="#A0A0A0" points="110.7934,73.6094,101.7934,69.6094,105.7934,73.6094,101.7934,77.6094,110.7934,73.6094" style="stroke: #A0A0A0; stroke-width: 1.0;"/><path d="M196.148,73.6094 C200.237,73.6094 204.326,73.6094 208.415,73.6094 " fill="none" style="stroke: #A0A0A0; stroke-width: 1.0;"/><polygon fill="#A0A0A0" points="213.594,73.6094,204.594,69.6094,208.594,73.6094,204.594,77.6094,213.594,73.6094" style="stroke: #A0A0A0; stroke-width: 1.0;"/><path d="M299.211,73.6094 C303.553,73.6094 307.895,73.6094 312.237,73.6094 " fill="none" style="stroke: #A0A0A0; stroke-width: 1.0;"/><polygon fill="#A0A0A0" points="317.334,73.6094,308.334,69.6094,312.334,73.6094,308.334,77.6094,317.334,73.6094" style="stroke: #A0A0A0; stroke-width: 1.0;"/><path d="M26.1563,61 C36.155,61 46.1537,61 56.1525,61 " fill="none" style="stroke: #A0A0A0; stroke-width: 1.0;"/><polygon fill="#A0A0A0" points="61.3812,61,52.3812,57,56.3812,61,52.3812,65,61.3812,61" style="stroke: #A0A0A0; stroke-width: 1.0;"/><path d="M370.688,61 C380.636,61 390.584,61 400.532,61 " fill="none" style="stroke: #A0A0A0; stroke-width: 1.0;"/><polygon fill="#A0A0A0" points="405.734,61,396.734,57,400.734,61,396.734,65,405.734,61" style="stroke: #A0A0A0; stroke-width: 1.0;"/></g></svg>