<?xml version="1.0" encoding="UTF-8" standalone="yes"?><svg xmlns="http://www.w3.org/2000/svg" xmlns:xlink="http://www.w3.org/1999/xlink" height="261px" style="width:140px;height:261px;" version="1.1" viewBox="0 0 140 261" width="140px"><defs><filter height="300%" id="f1" width="300%" x="-1" y="-1"><feGaussianBlur result="blurOut" stdDeviation="2.0"/><feColorMatrix in="blurOut" result="blurOut2" type="matrix" values="0 0 0 0 0 0 0 0 0 0 0 0 0 0 0 0 0 0 .4 0"/><feOffset dx="4.0" dy="4.0" in="blurOut2" result="blurOut3"/><feBlend in="SourceGraphic" in2="blurOut3" mode="normal"/></filter></defs><g><ellipse cx="34.5" cy="18" fill="#E0E0E0" filter="url(#f1)" rx="10" ry="10" style="stroke: none; stroke-width: 1.0;"/><rect fill="#508050" filter="url(#f1)" height="50" rx="12.5" ry="12.5" style="stroke: #E0E0E0; stroke-width: 1.5;" width="57" x="6" y="106"/><line style="stroke: #E0E0E0; stroke-width: 1.5;" x1="6" x2="63" y1="133.6094" y2="133.6094"/><text fill="#FFFFFF" font-family="sans-serif" font-size="14" lengthAdjust="spacingAndGlyphs" textLength="37" x="16" y="125.5332">状態A</text><ellipse cx="34.5" cy="244" fill="none" filter="url(#f1)" rx="10" ry="10" style="stroke: #E0E0E0; stroke-width: 1.0;"/><ellipse cx="35" cy="244.5" fill="#E0E0E0" rx="6" ry="6" style="stroke: none; stroke-width: 1.0;"/><path d="M34.5,28.084 C34.5,43.745 34.5,76.474 34.5,100.637 " fill="none" style="stroke: #E0E0E0; stroke-width: 1.0;"/><polygon fill="#E0E0E0" points="34.5,105.653,38.5,96.653,34.5,100.653,30.5,96.653,34.5,105.653" style="stroke: #E0E0E0; stroke-width: 1.0;"/><text fill="#FFFFFF" font-family="sans-serif" font-size="13" lengthAdjust="spacingAndGlyphs" textLength="35" x="35.5" y="72.4951">遷移A</text><path d="M63.2342,119.847 C81.0475,117.157 98,120.875 98,131 C98,140.176 84.0771,144.089 68.2083,142.741 " fill="none" style="stroke: #E0E0E0; stroke-width: 1.0;"/><polygon fill="#E0E0E0" points="63.2342,142.153,71.7028,147.1812,68.1997,142.7395,72.6413,139.2364,63.2342,142.153" style="stroke: #E0E0E0; stroke-width: 1.0;"/><text fill="#FFFFFF" font-family="sans-serif" font-size="13" lengthAdjust="spacingAndGlyphs" textLength="35" x="104" y="136.4951">遷移B</text><path d="M34.5,156.0853 C34.5,178.1589 34.5,210.1177 34.5,228.5025 " fill="none" style="stroke: #E0E0E0; stroke-width: 1.0;"/><polygon fill="#E0E0E0" points="34.5,233.7464,38.5,224.7464,34.5,228.7464,30.5,224.7464,34.5,233.7464" style="stroke: #E0E0E0; stroke-width: 1.0;"/><text fill="#FFFFFF" font-family="sans-serif" font-size="13" lengthAdjust="spacingAndGlyphs" textLength="35" x="35.5" y="200.4951">遷移C</text></g></svg>