<?xml version="1.0" encoding="UTF-8" standalone="yes"?><svg xmlns="http://www.w3.org/2000/svg" xmlns:xlink="http://www.w3.org/1999/xlink" height="253px" style="width:587px;height:253px;" version="1.1" viewBox="0 0 587 253" width="587px"><defs><filter height="300%" id="f1" width="300%" x="-1" y="-1"><feGaussianBlur result="blurOut" stdDeviation="2.0"/><feColorMatrix in="blurOut" result="blurOut2" type="matrix" values="0 0 0 0 0 0 0 0 0 0 0 0 0 0 0 0 0 0 .4 0"/><feOffset dx="4.0" dy="4.0" in="blurOut2" result="blurOut3"/><feBlend in="SourceGraphic" in2="blurOut3" mode="normal"/></filter></defs><g><ellipse cx="38.5" cy="18" fill="#508050" filter="url(#f1)" rx="8" ry="8" style="stroke: #E0E0E0; stroke-width: 2.0;"/><path d="M38.5,26 L38.5,53 M25.5,34 L51.5,34 M38.5,53 L25.5,68 M38.5,53 L51.5,68 " fill="#508050" filter="url(#f1)" style="stroke: #E0E0E0; stroke-width: 2.0;"/><text fill="#FFFFFF" font-family="sans-serif" font-size="14" lengthAdjust="spacingAndGlyphs" textLength="65" x="6" y="89.5332">アクターA</text><ellipse cx="38.5" cy="181" fill="#508050" filter="url(#f1)" rx="8" ry="8" style="stroke: #E0E0E0; stroke-width: 2.0;"/><path d="M38.5,189 L38.5,216 M25.5,197 L51.5,197 M38.5,216 L25.5,231 M38.5,216 L51.5,231 " fill="#508050" filter="url(#f1)" style="stroke: #E0E0E0; stroke-width: 2.0;"/><text fill="#FFFFFF" font-family="sans-serif" font-size="14" lengthAdjust="spacingAndGlyphs" textLength="65" x="6" y="252.5332">アクターB</text><ellipse cx="173.5337" cy="50.3067" fill="#508050" filter="url(#f1)" rx="67.0337" ry="15.8067" style="stroke: #E0E0E0; stroke-width: 1.5;"/><text fill="#FFFFFF" font-family="sans-serif" font-size="14" lengthAdjust="spacingAndGlyphs" textLength="93" x="127.0337" y="55.6114">ユースケースA</text><ellipse cx="173.5337" cy="213.3067" fill="#508050" filter="url(#f1)" rx="67.0337" ry="15.8067" style="stroke: #E0E0E0; stroke-width: 1.5;"/><text fill="#FFFFFF" font-family="sans-serif" font-size="14" lengthAdjust="spacingAndGlyphs" textLength="93" x="127.0337" y="218.6114">ユースケースB</text><ellipse cx="343.3977" cy="50.3795" fill="#508050" filter="url(#f1)" rx="67.3977" ry="15.8795" style="stroke: #E0E0E0; stroke-width: 1.5;"/><text fill="#FFFFFF" font-family="sans-serif" font-size="14" lengthAdjust="spacingAndGlyphs" textLength="94" x="296.3977" y="55.6842">ユースケースC</text><ellipse cx="343.3977" cy="213.3795" fill="#508050" filter="url(#f1)" rx="67.3977" ry="15.8795" style="stroke: #E0E0E0; stroke-width: 1.5;"/><text fill="#FFFFFF" font-family="sans-serif" font-size="14" lengthAdjust="spacingAndGlyphs" textLength="94" x="296.3977" y="218.6842">ユースケースD</text><ellipse cx="513.5337" cy="50.3067" fill="#508050" filter="url(#f1)" rx="67.0337" ry="15.8067" style="stroke: #E0E0E0; stroke-width: 1.5;"/><text fill="#FFFFFF" font-family="sans-serif" font-size="14" lengthAdjust="spacingAndGlyphs" textLength="93" x="467.0337" y="55.6114">ユースケースE</text><ellipse cx="513.5337" cy="213.3067" fill="#508050" filter="url(#f1)" rx="67.0337" ry="15.8067" style="stroke: #E0E0E0; stroke-width: 1.5;"/><text fill="#FFFFFF" font-family="sans-serif" font-size="14" lengthAdjust="spacingAndGlyphs" textLength="93" x="467.0337" y="218.6114">ユースケースF</text><path d="M38.5,113.419 C38.5,132.632 38.5,153.339 38.5,170.8291 " fill="none" style="stroke: #E0E0E0; stroke-width: 1.0;"/><polygon fill="none" points="31.5001,113.381,38.5,93.381,45.5001,113.381,31.5001,113.381" style="stroke: #E0E0E0; stroke-width: 1.0;"/><path d="M173.5,86.965 C173.5,121.443 173.5,172.1723 173.5,197.2765 " fill="none" style="stroke: #E0E0E0; stroke-width: 1.0;"/><polygon fill="none" points="166.5,86.647,173.5,66.646,180.5,86.646,166.5,86.647" style="stroke: #E0E0E0; stroke-width: 1.0;"/><path d="M343.5,72.014 C343.5,104.785 343.5,168.2085 343.5,197.2765 " fill="none" style="stroke: #E0E0E0; stroke-width: 1.0; stroke-dasharray: 7.0,7.0;"/><polygon fill="#E0E0E0" points="343.5,66.646,339.5,75.646,343.5,71.646,347.5,75.646,343.5,66.646" style="stroke: #E0E0E0; stroke-width: 1.0;"/><text fill="#FFFFFF" font-family="sans-serif" font-size="13" lengthAdjust="spacingAndGlyphs" textLength="73" x="344.5" y="137.4951">&lt;&lt;include&gt;&gt;</text><path d="M513.5,72.014 C513.5,104.785 513.5,168.2085 513.5,197.2765 " fill="none" style="stroke: #E0E0E0; stroke-width: 1.0; stroke-dasharray: 7.0,7.0;"/><polygon fill="#E0E0E0" points="513.5,66.646,509.5,75.646,513.5,71.646,517.5,75.646,513.5,66.646" style="stroke: #E0E0E0; stroke-width: 1.0;"/><text fill="#FFFFFF" font-family="sans-serif" font-size="13" lengthAdjust="spacingAndGlyphs" textLength="71" x="514.5" y="137.4951">&lt;&lt;extend&gt;&gt;</text></g></svg>