<?xml version="1.0" encoding="UTF-8" standalone="yes"?><svg xmlns="http://www.w3.org/2000/svg" xmlns:xlink="http://www.w3.org/1999/xlink" height="207px" style="width:187px;height:207px;" version="1.1" viewBox="0 0 187 207" width="187px"><defs><filter height="300%" id="f1" width="300%" x="-1" y="-1"><feGaussianBlur result="blurOut" stdDeviation="2.0"/><feColorMatrix in="blurOut" result="blurOut2" type="matrix" values="0 0 0 0 0 0 0 0 0 0 0 0 0 0 0 0 0 0 .4 0"/><feOffset dx="4.0" dy="4.0" in="blurOut2" result="blurOut3"/><feBlend in="SourceGraphic" in2="blurOut3" mode="normal"/></filter></defs><g><polygon fill="#C0C0A0" filter="url(#f1)" points="22,117,88,117,95,140.6094,180,140.6094,180,200,22,200,22,117" style="stroke: #000000; stroke-width: 2.0;"/><line style="stroke: #000000; stroke-width: 2.0;" x1="22" x2="95" y1="140.6094" y2="140.6094"/><text fill="#000000" font-family="sans-serif" font-size="14" font-weight="bold" lengthAdjust="spacingAndGlyphs" textLength="60" x="26" y="133.5332">システム</text><ellipse cx="100.897" cy="168.4517" fill="#508050" filter="url(#f1)" rx="62.397" ry="15.4517" style="stroke: #E0E0E0; stroke-width: 1.5;"/><text fill="#FFFFFF" font-family="sans-serif" font-size="14" lengthAdjust="spacingAndGlyphs" textLength="84" x="58.897" y="173.7564">ユースケース</text><ellipse cx="101" cy="18" fill="#508050" filter="url(#f1)" rx="8" ry="8" style="stroke: #E0E0E0; stroke-width: 2.0;"/><path d="M101,26 L101,53 M88,34 L114,34 M101,53 L88,68 M101,53 L114,68 " fill="#508050" filter="url(#f1)" style="stroke: #E0E0E0; stroke-width: 2.0;"/><text fill="#FFFFFF" font-family="sans-serif" font-size="14" lengthAdjust="spacingAndGlyphs" textLength="56" x="73" y="89.5332">アクター</text><path d="M101,93.051 C101,113.854 101,137.735 101,152.7202 " fill="none" style="stroke: #E0E0E0; stroke-width: 1.0;"/></g></svg>